<svg xmlns="http://www.w3.org/2000/svg" width="128" height="32" viewBox="0 0 128 32" shape-rendering="crispEdges">
<rect width="100%" height="100%" fill="none"/>
<rect x="37" y="8" width="8" height="1" fill="#3c2d5c"/>
<rect x="48" y="8" width="1" height="1" fill="#5c4584"/>
<rect x="51" y="8" width="8" height="1" fill="#3c2d5c"/>
<rect x="37" y="9" width="8" height="1" fill="#3c2d5c"/>
<rect x="45" y="9" width="6" height="1" fill="#5c4584"/>
<rect x="51" y="9" width="8" height="1" fill="#3c2d5c"/>
<rect x="5" y="10" width="8" height="1" fill="#3c2d5c"/>
<rect x="16" y="10" width="1" height="1" fill="#5c4584"/>
<rect x="19" y="10" width="8" height="1" fill="#3c2d5c"/>
<rect x="37" y="10" width="8" height="1" fill="#3c2d5c"/>
<rect x="45" y="10" width="6" height="1" fill="#5c4584"/>
<rect x="51" y="10" width="8" height="1" fill="#3c2d5c"/>
<rect x="69" y="10" width="8" height="1" fill="#3c2d5c"/>
<rect x="80" y="10" width="1" height="1" fill="#5c4584"/>
<rect x="83" y="10" width="8" height="1" fill="#3c2d5c"/>
<rect x="5" y="11" width="8" height="1" fill="#3c2d5c"/>
<rect x="13" y="11" width="6" height="1" fill="#5c4584"/>
<rect x="19" y="11" width="8" height="1" fill="#3c2d5c"/>
<rect x="37" y="11" width="8" height="1" fill="#3c2d5c"/>
<rect x="45" y="11" width="6" height="1" fill="#5c4584"/>
<rect x="51" y="11" width="8" height="1" fill="#3c2d5c"/>
<rect x="69" y="11" width="8" height="1" fill="#3c2d5c"/>
<rect x="77" y="11" width="6" height="1" fill="#5c4584"/>
<rect x="83" y="11" width="8" height="1" fill="#3c2d5c"/>
<rect x="5" y="12" width="8" height="1" fill="#3c2d5c"/>
<rect x="13" y="12" width="6" height="1" fill="#5c4584"/>
<rect x="19" y="12" width="8" height="1" fill="#3c2d5c"/>
<rect x="39" y="12" width="4" height="1" fill="#3c2d5c"/>
<rect x="44" y="12" width="9" height="1" fill="#5c4584"/>
<rect x="53" y="12" width="4" height="1" fill="#3c2d5c"/>
<rect x="69" y="12" width="8" height="1" fill="#3c2d5c"/>
<rect x="77" y="12" width="6" height="1" fill="#5c4584"/>
<rect x="83" y="12" width="8" height="1" fill="#3c2d5c"/>
<rect x="101" y="12" width="8" height="1" fill="#3c2d5c"/>
<rect x="112" y="12" width="1" height="1" fill="#5c4584"/>
<rect x="115" y="12" width="8" height="1" fill="#3c2d5c"/>
<rect x="5" y="13" width="8" height="1" fill="#3c2d5c"/>
<rect x="13" y="13" width="6" height="1" fill="#5c4584"/>
<rect x="19" y="13" width="8" height="1" fill="#3c2d5c"/>
<rect x="39" y="13" width="4" height="1" fill="#3c2d5c"/>
<rect x="43" y="13" width="3" height="1" fill="#5c4584"/>
<rect x="46" y="13" width="1" height="1" fill="#ff5555"/>
<rect x="47" y="13" width="3" height="1" fill="#5c4584"/>
<rect x="50" y="13" width="1" height="1" fill="#ff5555"/>
<rect x="51" y="13" width="2" height="1" fill="#5c4584"/>
<rect x="53" y="13" width="4" height="1" fill="#3c2d5c"/>
<rect x="69" y="13" width="8" height="1" fill="#3c2d5c"/>
<rect x="77" y="13" width="6" height="1" fill="#5c4584"/>
<rect x="83" y="13" width="8" height="1" fill="#3c2d5c"/>
<rect x="101" y="13" width="8" height="1" fill="#3c2d5c"/>
<rect x="109" y="13" width="6" height="1" fill="#5c4584"/>
<rect x="115" y="13" width="8" height="1" fill="#3c2d5c"/>
<rect x="7" y="14" width="4" height="1" fill="#3c2d5c"/>
<rect x="12" y="14" width="9" height="1" fill="#5c4584"/>
<rect x="21" y="14" width="4" height="1" fill="#3c2d5c"/>
<rect x="39" y="14" width="4" height="1" fill="#3c2d5c"/>
<rect x="44" y="14" width="9" height="1" fill="#5c4584"/>
<rect x="53" y="14" width="4" height="1" fill="#3c2d5c"/>
<rect x="71" y="14" width="4" height="1" fill="#3c2d5c"/>
<rect x="76" y="14" width="9" height="1" fill="#5c4584"/>
<rect x="85" y="14" width="4" height="1" fill="#3c2d5c"/>
<rect x="101" y="14" width="8" height="1" fill="#3c2d5c"/>
<rect x="109" y="14" width="6" height="1" fill="#5c4584"/>
<rect x="115" y="14" width="8" height="1" fill="#3c2d5c"/>
<rect x="7" y="15" width="4" height="1" fill="#3c2d5c"/>
<rect x="11" y="15" width="3" height="1" fill="#5c4584"/>
<rect x="14" y="15" width="1" height="1" fill="#ff5555"/>
<rect x="15" y="15" width="3" height="1" fill="#5c4584"/>
<rect x="18" y="15" width="1" height="1" fill="#ff5555"/>
<rect x="19" y="15" width="2" height="1" fill="#5c4584"/>
<rect x="21" y="15" width="4" height="1" fill="#3c2d5c"/>
<rect x="39" y="15" width="4" height="1" fill="#3c2d5c"/>
<rect x="44" y="15" width="9" height="1" fill="#5c4584"/>
<rect x="53" y="15" width="4" height="1" fill="#3c2d5c"/>
<rect x="71" y="15" width="4" height="1" fill="#3c2d5c"/>
<rect x="75" y="15" width="3" height="1" fill="#5c4584"/>
<rect x="78" y="15" width="1" height="1" fill="#ff5555"/>
<rect x="79" y="15" width="3" height="1" fill="#5c4584"/>
<rect x="82" y="15" width="1" height="1" fill="#ff5555"/>
<rect x="83" y="15" width="2" height="1" fill="#5c4584"/>
<rect x="85" y="15" width="4" height="1" fill="#3c2d5c"/>
<rect x="101" y="15" width="8" height="1" fill="#3c2d5c"/>
<rect x="109" y="15" width="6" height="1" fill="#5c4584"/>
<rect x="115" y="15" width="8" height="1" fill="#3c2d5c"/>
<rect x="7" y="16" width="4" height="1" fill="#3c2d5c"/>
<rect x="12" y="16" width="9" height="1" fill="#5c4584"/>
<rect x="21" y="16" width="4" height="1" fill="#3c2d5c"/>
<rect x="39" y="16" width="4" height="1" fill="#3c2d5c"/>
<rect x="44" y="16" width="9" height="1" fill="#5c4584"/>
<rect x="53" y="16" width="4" height="1" fill="#3c2d5c"/>
<rect x="71" y="16" width="4" height="1" fill="#3c2d5c"/>
<rect x="76" y="16" width="9" height="1" fill="#5c4584"/>
<rect x="85" y="16" width="4" height="1" fill="#3c2d5c"/>
<rect x="103" y="16" width="4" height="1" fill="#3c2d5c"/>
<rect x="108" y="16" width="9" height="1" fill="#5c4584"/>
<rect x="117" y="16" width="4" height="1" fill="#3c2d5c"/>
<rect x="7" y="17" width="4" height="1" fill="#3c2d5c"/>
<rect x="12" y="17" width="9" height="1" fill="#5c4584"/>
<rect x="21" y="17" width="4" height="1" fill="#3c2d5c"/>
<rect x="45" y="17" width="7" height="1" fill="#5c4584"/>
<rect x="71" y="17" width="4" height="1" fill="#3c2d5c"/>
<rect x="76" y="17" width="9" height="1" fill="#5c4584"/>
<rect x="85" y="17" width="4" height="1" fill="#3c2d5c"/>
<rect x="103" y="17" width="4" height="1" fill="#3c2d5c"/>
<rect x="107" y="17" width="3" height="1" fill="#5c4584"/>
<rect x="110" y="17" width="1" height="1" fill="#ff5555"/>
<rect x="111" y="17" width="3" height="1" fill="#5c4584"/>
<rect x="114" y="17" width="1" height="1" fill="#ff5555"/>
<rect x="115" y="17" width="2" height="1" fill="#5c4584"/>
<rect x="117" y="17" width="4" height="1" fill="#3c2d5c"/>
<rect x="7" y="18" width="4" height="1" fill="#3c2d5c"/>
<rect x="12" y="18" width="9" height="1" fill="#5c4584"/>
<rect x="21" y="18" width="4" height="1" fill="#3c2d5c"/>
<rect x="45" y="18" width="6" height="1" fill="#5c4584"/>
<rect x="71" y="18" width="4" height="1" fill="#3c2d5c"/>
<rect x="76" y="18" width="9" height="1" fill="#5c4584"/>
<rect x="85" y="18" width="4" height="1" fill="#3c2d5c"/>
<rect x="103" y="18" width="4" height="1" fill="#3c2d5c"/>
<rect x="108" y="18" width="9" height="1" fill="#5c4584"/>
<rect x="117" y="18" width="4" height="1" fill="#3c2d5c"/>
<rect x="13" y="19" width="7" height="1" fill="#5c4584"/>
<rect x="45" y="19" width="6" height="1" fill="#5c4584"/>
<rect x="77" y="19" width="7" height="1" fill="#5c4584"/>
<rect x="103" y="19" width="4" height="1" fill="#3c2d5c"/>
<rect x="108" y="19" width="9" height="1" fill="#5c4584"/>
<rect x="117" y="19" width="4" height="1" fill="#3c2d5c"/>
<rect x="13" y="20" width="6" height="1" fill="#5c4584"/>
<rect x="45" y="20" width="6" height="1" fill="#5c4584"/>
<rect x="77" y="20" width="6" height="1" fill="#5c4584"/>
<rect x="103" y="20" width="4" height="1" fill="#3c2d5c"/>
<rect x="108" y="20" width="9" height="1" fill="#5c4584"/>
<rect x="117" y="20" width="4" height="1" fill="#3c2d5c"/>
<rect x="13" y="21" width="6" height="1" fill="#5c4584"/>
<rect x="77" y="21" width="6" height="1" fill="#5c4584"/>
<rect x="109" y="21" width="7" height="1" fill="#5c4584"/>
<rect x="13" y="22" width="6" height="1" fill="#5c4584"/>
<rect x="77" y="22" width="6" height="1" fill="#5c4584"/>
<rect x="109" y="22" width="6" height="1" fill="#5c4584"/>
<rect x="109" y="23" width="6" height="1" fill="#5c4584"/>
<rect x="109" y="24" width="6" height="1" fill="#5c4584"/>
</svg>
