<svg xmlns="http://www.w3.org/2000/svg" width="128" height="32" viewBox="0 0 128 32" shape-rendering="crispEdges">
<rect width="100%" height="100%" fill="none"/>
<rect x="112" y="7" width="1" height="1" fill="#63c95d"/>
<rect x="16" y="8" width="1" height="1" fill="#63c95d"/>
<rect x="80" y="8" width="1" height="1" fill="#63c95d"/>
<rect x="108" y="8" width="9" height="1" fill="#63c95d"/>
<rect x="12" y="9" width="9" height="1" fill="#63c95d"/>
<rect x="48" y="9" width="1" height="1" fill="#63c95d"/>
<rect x="76" y="9" width="9" height="1" fill="#63c95d"/>
<rect x="106" y="9" width="13" height="1" fill="#63c95d"/>
<rect x="10" y="10" width="13" height="1" fill="#63c95d"/>
<rect x="44" y="10" width="9" height="1" fill="#63c95d"/>
<rect x="74" y="10" width="13" height="1" fill="#63c95d"/>
<rect x="105" y="10" width="15" height="1" fill="#63c95d"/>
<rect x="9" y="11" width="15" height="1" fill="#63c95d"/>
<rect x="42" y="11" width="13" height="1" fill="#63c95d"/>
<rect x="73" y="11" width="15" height="1" fill="#63c95d"/>
<rect x="104" y="11" width="17" height="1" fill="#63c95d"/>
<rect x="8" y="12" width="17" height="1" fill="#63c95d"/>
<rect x="41" y="12" width="15" height="1" fill="#63c95d"/>
<rect x="72" y="12" width="17" height="1" fill="#63c95d"/>
<rect x="104" y="12" width="3" height="1" fill="#63c95d"/>
<rect x="107" y="12" width="1" height="1" fill="#b4ff9a"/>
<rect x="108" y="12" width="13" height="1" fill="#63c95d"/>
<rect x="8" y="13" width="3" height="1" fill="#63c95d"/>
<rect x="11" y="13" width="1" height="1" fill="#b4ff9a"/>
<rect x="12" y="13" width="13" height="1" fill="#63c95d"/>
<rect x="40" y="13" width="17" height="1" fill="#63c95d"/>
<rect x="72" y="13" width="3" height="1" fill="#63c95d"/>
<rect x="75" y="13" width="1" height="1" fill="#b4ff9a"/>
<rect x="76" y="13" width="13" height="1" fill="#63c95d"/>
<rect x="103" y="13" width="19" height="1" fill="#63c95d"/>
<rect x="7" y="14" width="19" height="1" fill="#63c95d"/>
<rect x="40" y="14" width="3" height="1" fill="#63c95d"/>
<rect x="43" y="14" width="1" height="1" fill="#b4ff9a"/>
<rect x="44" y="14" width="13" height="1" fill="#63c95d"/>
<rect x="71" y="14" width="19" height="1" fill="#63c95d"/>
<rect x="103" y="14" width="19" height="1" fill="#63c95d"/>
<rect x="7" y="15" width="19" height="1" fill="#63c95d"/>
<rect x="39" y="15" width="19" height="1" fill="#63c95d"/>
<rect x="71" y="15" width="19" height="1" fill="#63c95d"/>
<rect x="103" y="15" width="19" height="1" fill="#63c95d"/>
<rect x="7" y="16" width="19" height="1" fill="#63c95d"/>
<rect x="39" y="16" width="19" height="1" fill="#63c95d"/>
<rect x="71" y="16" width="19" height="1" fill="#63c95d"/>
<rect x="103" y="16" width="5" height="1" fill="#63c95d"/>
<rect x="108" y="16" width="1" height="1" fill="#111816"/>
<rect x="109" y="16" width="7" height="1" fill="#63c95d"/>
<rect x="116" y="16" width="1" height="1" fill="#111816"/>
<rect x="117" y="16" width="5" height="1" fill="#63c95d"/>
<rect x="7" y="17" width="5" height="1" fill="#63c95d"/>
<rect x="12" y="17" width="1" height="1" fill="#111816"/>
<rect x="13" y="17" width="7" height="1" fill="#63c95d"/>
<rect x="20" y="17" width="1" height="1" fill="#111816"/>
<rect x="21" y="17" width="5" height="1" fill="#63c95d"/>
<rect x="39" y="17" width="19" height="1" fill="#63c95d"/>
<rect x="71" y="17" width="5" height="1" fill="#63c95d"/>
<rect x="76" y="17" width="1" height="1" fill="#111816"/>
<rect x="77" y="17" width="7" height="1" fill="#63c95d"/>
<rect x="84" y="17" width="1" height="1" fill="#111816"/>
<rect x="85" y="17" width="5" height="1" fill="#63c95d"/>
<rect x="102" y="17" width="21" height="1" fill="#63c95d"/>
<rect x="6" y="18" width="21" height="1" fill="#63c95d"/>
<rect x="39" y="18" width="5" height="1" fill="#63c95d"/>
<rect x="44" y="18" width="1" height="1" fill="#111816"/>
<rect x="45" y="18" width="7" height="1" fill="#63c95d"/>
<rect x="52" y="18" width="1" height="1" fill="#111816"/>
<rect x="53" y="18" width="5" height="1" fill="#63c95d"/>
<rect x="70" y="18" width="21" height="1" fill="#63c95d"/>
<rect x="103" y="18" width="19" height="1" fill="#63c95d"/>
<rect x="7" y="19" width="19" height="1" fill="#63c95d"/>
<rect x="38" y="19" width="21" height="1" fill="#63c95d"/>
<rect x="71" y="19" width="19" height="1" fill="#63c95d"/>
<rect x="103" y="19" width="19" height="1" fill="#63c95d"/>
<rect x="7" y="20" width="19" height="1" fill="#63c95d"/>
<rect x="39" y="20" width="19" height="1" fill="#63c95d"/>
<rect x="71" y="20" width="19" height="1" fill="#63c95d"/>
<rect x="103" y="20" width="19" height="1" fill="#63c95d"/>
<rect x="7" y="21" width="19" height="1" fill="#63c95d"/>
<rect x="39" y="21" width="19" height="1" fill="#63c95d"/>
<rect x="71" y="21" width="19" height="1" fill="#63c95d"/>
<rect x="103" y="21" width="6" height="1" fill="#63c95d"/>
<rect x="109" y="21" width="6" height="1" fill="#2a7036"/>
<rect x="115" y="21" width="7" height="1" fill="#63c95d"/>
<rect x="7" y="22" width="6" height="1" fill="#63c95d"/>
<rect x="13" y="22" width="6" height="1" fill="#2a7036"/>
<rect x="19" y="22" width="7" height="1" fill="#63c95d"/>
<rect x="39" y="22" width="19" height="1" fill="#63c95d"/>
<rect x="71" y="22" width="6" height="1" fill="#63c95d"/>
<rect x="77" y="22" width="6" height="1" fill="#2a7036"/>
<rect x="83" y="22" width="7" height="1" fill="#63c95d"/>
<rect x="103" y="22" width="6" height="1" fill="#63c95d"/>
<rect x="109" y="22" width="6" height="1" fill="#2a7036"/>
<rect x="115" y="22" width="6" height="1" fill="#63c95d"/>
<rect x="7" y="23" width="6" height="1" fill="#63c95d"/>
<rect x="13" y="23" width="6" height="1" fill="#2a7036"/>
<rect x="19" y="23" width="6" height="1" fill="#63c95d"/>
<rect x="39" y="23" width="6" height="1" fill="#63c95d"/>
<rect x="45" y="23" width="6" height="1" fill="#2a7036"/>
<rect x="51" y="23" width="7" height="1" fill="#63c95d"/>
<rect x="71" y="23" width="6" height="1" fill="#63c95d"/>
<rect x="77" y="23" width="6" height="1" fill="#2a7036"/>
<rect x="83" y="23" width="6" height="1" fill="#63c95d"/>
<rect x="103" y="23" width="18" height="1" fill="#63c95d"/>
<rect x="7" y="24" width="18" height="1" fill="#63c95d"/>
<rect x="39" y="24" width="6" height="1" fill="#63c95d"/>
<rect x="45" y="24" width="6" height="1" fill="#2a7036"/>
<rect x="51" y="24" width="6" height="1" fill="#63c95d"/>
<rect x="71" y="24" width="18" height="1" fill="#63c95d"/>
<rect x="103" y="24" width="18" height="1" fill="#63c95d"/>
<rect x="7" y="25" width="1" height="1" fill="#63c95d"/>
<rect x="8" y="25" width="16" height="1" fill="#2a7036"/>
<rect x="24" y="25" width="1" height="1" fill="#63c95d"/>
<rect x="39" y="25" width="1" height="1" fill="#63c95d"/>
<rect x="40" y="25" width="16" height="1" fill="#2a7036"/>
<rect x="56" y="25" width="1" height="1" fill="#63c95d"/>
<rect x="71" y="25" width="1" height="1" fill="#63c95d"/>
<rect x="72" y="25" width="16" height="1" fill="#2a7036"/>
<rect x="88" y="25" width="1" height="1" fill="#63c95d"/>
<rect x="103" y="25" width="1" height="1" fill="#63c95d"/>
<rect x="104" y="25" width="16" height="1" fill="#2a7036"/>
<rect x="120" y="25" width="1" height="1" fill="#63c95d"/>
<rect x="7" y="26" width="1" height="1" fill="#63c95d"/>
<rect x="8" y="26" width="16" height="1" fill="#2a7036"/>
<rect x="24" y="26" width="1" height="1" fill="#63c95d"/>
<rect x="39" y="26" width="1" height="1" fill="#63c95d"/>
<rect x="40" y="26" width="16" height="1" fill="#2a7036"/>
<rect x="56" y="26" width="1" height="1" fill="#63c95d"/>
<rect x="71" y="26" width="1" height="1" fill="#63c95d"/>
<rect x="72" y="26" width="16" height="1" fill="#2a7036"/>
<rect x="88" y="26" width="1" height="1" fill="#63c95d"/>
<rect x="103" y="26" width="1" height="1" fill="#63c95d"/>
<rect x="104" y="26" width="16" height="1" fill="#2a7036"/>
<rect x="120" y="26" width="1" height="1" fill="#63c95d"/>
<rect x="8" y="27" width="16" height="1" fill="#2a7036"/>
<rect x="40" y="27" width="16" height="1" fill="#2a7036"/>
<rect x="72" y="27" width="16" height="1" fill="#2a7036"/>
<rect x="104" y="27" width="16" height="1" fill="#2a7036"/>
<rect x="16" y="28" width="1" height="1" fill="#63c95d"/>
<rect x="44" y="28" width="9" height="1" fill="#63c95d"/>
<rect x="80" y="28" width="1" height="1" fill="#63c95d"/>
<rect x="48" y="29" width="1" height="1" fill="#63c95d"/>
</svg>
