<svg xmlns="http://www.w3.org/2000/svg" width="128" height="32" viewBox="0 0 128 32" shape-rendering="crispEdges">
<rect width="100%" height="100%" fill="none"/>
<rect x="120" y="5" width="1" height="1" fill="#ffa046" fill-opacity="0.627"/>
<rect x="119" y="6" width="1" height="1" fill="#ffa046" fill-opacity="0.627"/>
<rect x="86" y="7" width="1" height="1" fill="#ffa046" fill-opacity="0.627"/>
<rect x="118" y="7" width="1" height="1" fill="#ffa046" fill-opacity="0.627"/>
<rect x="85" y="8" width="1" height="1" fill="#ffa046" fill-opacity="0.627"/>
<rect x="117" y="8" width="1" height="1" fill="#ffa046" fill-opacity="0.627"/>
<rect x="52" y="9" width="1" height="1" fill="#ffe878" fill-opacity="0.784"/>
<rect x="84" y="9" width="1" height="1" fill="#ffa046" fill-opacity="0.627"/>
<rect x="116" y="9" width="1" height="1" fill="#ffa046" fill-opacity="0.627"/>
<rect x="51" y="10" width="1" height="1" fill="#ffe878" fill-opacity="0.784"/>
<rect x="83" y="10" width="1" height="1" fill="#ffa046" fill-opacity="0.627"/>
<rect x="115" y="10" width="1" height="1" fill="#ffa046" fill-opacity="0.627"/>
<rect x="18" y="11" width="1" height="1" fill="#ffffff" fill-opacity="0.824"/>
<rect x="50" y="11" width="1" height="1" fill="#ffe878" fill-opacity="0.784"/>
<rect x="82" y="11" width="1" height="1" fill="#ffa046" fill-opacity="0.627"/>
<rect x="114" y="11" width="1" height="1" fill="#ffa046" fill-opacity="0.627"/>
<rect x="17" y="12" width="1" height="1" fill="#ffffff" fill-opacity="0.824"/>
<rect x="49" y="12" width="1" height="1" fill="#ffe878" fill-opacity="0.784"/>
<rect x="81" y="12" width="1" height="1" fill="#ffa046" fill-opacity="0.627"/>
<rect x="113" y="12" width="1" height="1" fill="#ffa046" fill-opacity="0.627"/>
<rect x="16" y="13" width="1" height="1" fill="#ffffff" fill-opacity="0.824"/>
<rect x="48" y="13" width="1" height="1" fill="#ffe878" fill-opacity="0.784"/>
<rect x="80" y="13" width="1" height="1" fill="#ffa046" fill-opacity="0.627"/>
<rect x="112" y="13" width="1" height="1" fill="#ffa046" fill-opacity="0.627"/>
<rect x="15" y="14" width="1" height="1" fill="#ffffff" fill-opacity="0.824"/>
<rect x="47" y="14" width="1" height="1" fill="#ffe878" fill-opacity="0.784"/>
<rect x="79" y="14" width="1" height="1" fill="#ffa046" fill-opacity="0.627"/>
<rect x="111" y="14" width="1" height="1" fill="#ffa046" fill-opacity="0.627"/>
<rect x="14" y="15" width="1" height="1" fill="#ffffff" fill-opacity="0.824"/>
<rect x="46" y="15" width="1" height="1" fill="#ffe878" fill-opacity="0.784"/>
<rect x="78" y="15" width="1" height="1" fill="#ffa046" fill-opacity="0.627"/>
<rect x="110" y="15" width="1" height="1" fill="#ffa046" fill-opacity="0.627"/>
<rect x="13" y="16" width="1" height="1" fill="#ffffff" fill-opacity="0.824"/>
<rect x="45" y="16" width="1" height="1" fill="#ffe878" fill-opacity="0.784"/>
<rect x="77" y="16" width="1" height="1" fill="#ffa046" fill-opacity="0.627"/>
<rect x="109" y="16" width="1" height="1" fill="#ffa046" fill-opacity="0.627"/>
<rect x="116" y="16" width="1" height="1" fill="#ffa046" fill-opacity="0.627"/>
<rect x="12" y="17" width="1" height="1" fill="#ffffff" fill-opacity="0.824"/>
<rect x="44" y="17" width="1" height="1" fill="#ffe878" fill-opacity="0.784"/>
<rect x="76" y="17" width="1" height="1" fill="#ffa046" fill-opacity="0.627"/>
<rect x="108" y="17" width="1" height="1" fill="#ffa046" fill-opacity="0.627"/>
<rect x="114" y="17" width="2" height="1" fill="#ffa046" fill-opacity="0.627"/>
<rect x="11" y="18" width="1" height="1" fill="#ffffff" fill-opacity="0.824"/>
<rect x="43" y="18" width="1" height="1" fill="#ffe878" fill-opacity="0.784"/>
<rect x="75" y="18" width="1" height="1" fill="#ffa046" fill-opacity="0.627"/>
<rect x="80" y="18" width="2" height="1" fill="#ffa046" fill-opacity="0.627"/>
<rect x="107" y="18" width="1" height="1" fill="#ffa046" fill-opacity="0.627"/>
<rect x="112" y="18" width="2" height="1" fill="#ffa046" fill-opacity="0.627"/>
<rect x="10" y="19" width="1" height="1" fill="#ffffff" fill-opacity="0.824"/>
<rect x="42" y="19" width="1" height="1" fill="#ffe878" fill-opacity="0.784"/>
<rect x="46" y="19" width="1" height="1" fill="#ffe878" fill-opacity="0.784"/>
<rect x="74" y="19" width="1" height="1" fill="#ffa046" fill-opacity="0.627"/>
<rect x="78" y="19" width="2" height="1" fill="#ffa046" fill-opacity="0.627"/>
<rect x="106" y="19" width="1" height="1" fill="#ffa046" fill-opacity="0.627"/>
<rect x="110" y="19" width="2" height="1" fill="#ffa046" fill-opacity="0.627"/>
<rect x="9" y="20" width="1" height="1" fill="#ffffff" fill-opacity="0.824"/>
<rect x="41" y="20" width="1" height="1" fill="#ffe878" fill-opacity="0.784"/>
<rect x="44" y="20" width="2" height="1" fill="#ffe878" fill-opacity="0.784"/>
<rect x="73" y="20" width="1" height="1" fill="#ffa046" fill-opacity="0.627"/>
<rect x="76" y="20" width="2" height="1" fill="#ffa046" fill-opacity="0.627"/>
<rect x="105" y="20" width="1" height="1" fill="#ffa046" fill-opacity="0.627"/>
<rect x="108" y="20" width="2" height="1" fill="#ffa046" fill-opacity="0.627"/>
<rect x="10" y="21" width="2" height="1" fill="#ffffff" fill-opacity="0.824"/>
<rect x="42" y="21" width="2" height="1" fill="#ffe878" fill-opacity="0.784"/>
<rect x="74" y="21" width="2" height="1" fill="#ffa046" fill-opacity="0.627"/>
<rect x="106" y="21" width="2" height="1" fill="#ffa046" fill-opacity="0.627"/>
<rect x="8" y="22" width="2" height="1" fill="#ffffff" fill-opacity="0.824"/>
<rect x="40" y="22" width="2" height="1" fill="#ffe878" fill-opacity="0.784"/>
<rect x="72" y="22" width="2" height="1" fill="#ffa046" fill-opacity="0.627"/>
<rect x="104" y="22" width="2" height="1" fill="#ffa046" fill-opacity="0.627"/>
</svg>
