<svg xmlns="http://www.w3.org/2000/svg" width="128" height="32" viewBox="0 0 128 32" shape-rendering="crispEdges">
<rect width="100%" height="100%" fill="none"/>
<rect x="11" y="4" width="10" height="1" fill="#482d1c"/>
<rect x="43" y="4" width="10" height="1" fill="#482d1c"/>
<rect x="75" y="4" width="10" height="1" fill="#482d1c"/>
<rect x="107" y="4" width="10" height="1" fill="#482d1c"/>
<rect x="11" y="5" width="10" height="1" fill="#482d1c"/>
<rect x="43" y="5" width="10" height="1" fill="#482d1c"/>
<rect x="75" y="5" width="10" height="1" fill="#482d1c"/>
<rect x="107" y="5" width="10" height="1" fill="#482d1c"/>
<rect x="11" y="6" width="10" height="1" fill="#482d1c"/>
<rect x="43" y="6" width="10" height="1" fill="#482d1c"/>
<rect x="75" y="6" width="10" height="1" fill="#482d1c"/>
<rect x="107" y="6" width="10" height="1" fill="#482d1c"/>
<rect x="12" y="7" width="8" height="1" fill="#ecbf84"/>
<rect x="44" y="7" width="8" height="1" fill="#ecbf84"/>
<rect x="58" y="7" width="1" height="1" fill="#dce6eb"/>
<rect x="76" y="7" width="8" height="1" fill="#ecbf84"/>
<rect x="108" y="7" width="8" height="1" fill="#ecbf84"/>
<rect x="12" y="8" width="2" height="1" fill="#ecbf84"/>
<rect x="14" y="8" width="1" height="1" fill="#131f32"/>
<rect x="15" y="8" width="3" height="1" fill="#ecbf84"/>
<rect x="18" y="8" width="1" height="1" fill="#131f32"/>
<rect x="19" y="8" width="1" height="1" fill="#ecbf84"/>
<rect x="26" y="8" width="1" height="1" fill="#dce6eb"/>
<rect x="44" y="8" width="2" height="1" fill="#ecbf84"/>
<rect x="46" y="8" width="1" height="1" fill="#131f32"/>
<rect x="47" y="8" width="3" height="1" fill="#ecbf84"/>
<rect x="50" y="8" width="1" height="1" fill="#131f32"/>
<rect x="51" y="8" width="1" height="1" fill="#ecbf84"/>
<rect x="56" y="8" width="3" height="1" fill="#dce6eb"/>
<rect x="76" y="8" width="2" height="1" fill="#ecbf84"/>
<rect x="78" y="8" width="1" height="1" fill="#131f32"/>
<rect x="79" y="8" width="3" height="1" fill="#ecbf84"/>
<rect x="82" y="8" width="1" height="1" fill="#131f32"/>
<rect x="83" y="8" width="1" height="1" fill="#ecbf84"/>
<rect x="90" y="8" width="1" height="1" fill="#dce6eb"/>
<rect x="108" y="8" width="2" height="1" fill="#ecbf84"/>
<rect x="110" y="8" width="1" height="1" fill="#131f32"/>
<rect x="111" y="8" width="3" height="1" fill="#ecbf84"/>
<rect x="114" y="8" width="1" height="1" fill="#131f32"/>
<rect x="115" y="8" width="1" height="1" fill="#ecbf84"/>
<rect x="12" y="9" width="8" height="1" fill="#ecbf84"/>
<rect x="24" y="9" width="3" height="1" fill="#dce6eb"/>
<rect x="44" y="9" width="8" height="1" fill="#ecbf84"/>
<rect x="56" y="9" width="3" height="1" fill="#dce6eb"/>
<rect x="76" y="9" width="8" height="1" fill="#ecbf84"/>
<rect x="88" y="9" width="3" height="1" fill="#dce6eb"/>
<rect x="108" y="9" width="8" height="1" fill="#ecbf84"/>
<rect x="122" y="9" width="1" height="1" fill="#dce6eb"/>
<rect x="11" y="10" width="1" height="1" fill="#2d69d2"/>
<rect x="12" y="10" width="8" height="1" fill="#ecbf84"/>
<rect x="20" y="10" width="1" height="1" fill="#2d69d2"/>
<rect x="24" y="10" width="3" height="1" fill="#dce6eb"/>
<rect x="43" y="10" width="1" height="1" fill="#2d69d2"/>
<rect x="44" y="10" width="8" height="1" fill="#ecbf84"/>
<rect x="52" y="10" width="1" height="1" fill="#2d69d2"/>
<rect x="56" y="10" width="3" height="1" fill="#dce6eb"/>
<rect x="75" y="10" width="1" height="1" fill="#2d69d2"/>
<rect x="76" y="10" width="8" height="1" fill="#ecbf84"/>
<rect x="84" y="10" width="1" height="1" fill="#2d69d2"/>
<rect x="88" y="10" width="3" height="1" fill="#dce6eb"/>
<rect x="107" y="10" width="1" height="1" fill="#2d69d2"/>
<rect x="108" y="10" width="8" height="1" fill="#ecbf84"/>
<rect x="116" y="10" width="1" height="1" fill="#2d69d2"/>
<rect x="120" y="10" width="3" height="1" fill="#dce6eb"/>
<rect x="11" y="11" width="1" height="1" fill="#2d69d2"/>
<rect x="12" y="11" width="8" height="1" fill="#ecbf84"/>
<rect x="20" y="11" width="1" height="1" fill="#2d69d2"/>
<rect x="24" y="11" width="3" height="1" fill="#dce6eb"/>
<rect x="43" y="11" width="1" height="1" fill="#2d69d2"/>
<rect x="44" y="11" width="8" height="1" fill="#ecbf84"/>
<rect x="52" y="11" width="4" height="1" fill="#2d69d2"/>
<rect x="56" y="11" width="3" height="1" fill="#dce6eb"/>
<rect x="75" y="11" width="1" height="1" fill="#2d69d2"/>
<rect x="76" y="11" width="8" height="1" fill="#ecbf84"/>
<rect x="84" y="11" width="1" height="1" fill="#2d69d2"/>
<rect x="88" y="11" width="3" height="1" fill="#dce6eb"/>
<rect x="104" y="11" width="4" height="1" fill="#2d69d2"/>
<rect x="108" y="11" width="8" height="1" fill="#ecbf84"/>
<rect x="116" y="11" width="1" height="1" fill="#2d69d2"/>
<rect x="120" y="11" width="3" height="1" fill="#dce6eb"/>
<rect x="8" y="12" width="16" height="1" fill="#2d69d2"/>
<rect x="24" y="12" width="3" height="1" fill="#dce6eb"/>
<rect x="43" y="12" width="13" height="1" fill="#2d69d2"/>
<rect x="56" y="12" width="3" height="1" fill="#dce6eb"/>
<rect x="72" y="12" width="16" height="1" fill="#2d69d2"/>
<rect x="88" y="12" width="3" height="1" fill="#dce6eb"/>
<rect x="104" y="12" width="13" height="1" fill="#2d69d2"/>
<rect x="120" y="12" width="3" height="1" fill="#dce6eb"/>
<rect x="8" y="13" width="16" height="1" fill="#2d69d2"/>
<rect x="24" y="13" width="3" height="1" fill="#dce6eb"/>
<rect x="40" y="13" width="16" height="1" fill="#2d69d2"/>
<rect x="56" y="13" width="3" height="1" fill="#dce6eb"/>
<rect x="72" y="13" width="16" height="1" fill="#2d69d2"/>
<rect x="88" y="13" width="3" height="1" fill="#dce6eb"/>
<rect x="104" y="13" width="16" height="1" fill="#2d69d2"/>
<rect x="120" y="13" width="3" height="1" fill="#dce6eb"/>
<rect x="8" y="14" width="16" height="1" fill="#2d69d2"/>
<rect x="24" y="14" width="3" height="1" fill="#dce6eb"/>
<rect x="40" y="14" width="16" height="1" fill="#2d69d2"/>
<rect x="56" y="14" width="3" height="1" fill="#dce6eb"/>
<rect x="72" y="14" width="16" height="1" fill="#2d69d2"/>
<rect x="88" y="14" width="3" height="1" fill="#dce6eb"/>
<rect x="104" y="14" width="16" height="1" fill="#2d69d2"/>
<rect x="120" y="14" width="3" height="1" fill="#dce6eb"/>
<rect x="8" y="15" width="16" height="1" fill="#2d69d2"/>
<rect x="24" y="15" width="3" height="1" fill="#dce6eb"/>
<rect x="40" y="15" width="16" height="1" fill="#2d69d2"/>
<rect x="56" y="15" width="3" height="1" fill="#dce6eb"/>
<rect x="72" y="15" width="16" height="1" fill="#2d69d2"/>
<rect x="88" y="15" width="3" height="1" fill="#dce6eb"/>
<rect x="104" y="15" width="16" height="1" fill="#2d69d2"/>
<rect x="120" y="15" width="3" height="1" fill="#dce6eb"/>
<rect x="8" y="16" width="16" height="1" fill="#2d69d2"/>
<rect x="24" y="16" width="3" height="1" fill="#dce6eb"/>
<rect x="40" y="16" width="16" height="1" fill="#2d69d2"/>
<rect x="56" y="16" width="3" height="1" fill="#dce6eb"/>
<rect x="72" y="16" width="16" height="1" fill="#2d69d2"/>
<rect x="88" y="16" width="3" height="1" fill="#dce6eb"/>
<rect x="104" y="16" width="16" height="1" fill="#2d69d2"/>
<rect x="120" y="16" width="3" height="1" fill="#dce6eb"/>
<rect x="8" y="17" width="16" height="1" fill="#2d69d2"/>
<rect x="24" y="17" width="3" height="1" fill="#dce6eb"/>
<rect x="40" y="17" width="16" height="1" fill="#2d69d2"/>
<rect x="56" y="17" width="3" height="1" fill="#dce6eb"/>
<rect x="72" y="17" width="16" height="1" fill="#2d69d2"/>
<rect x="88" y="17" width="3" height="1" fill="#dce6eb"/>
<rect x="104" y="17" width="16" height="1" fill="#2d69d2"/>
<rect x="120" y="17" width="3" height="1" fill="#dce6eb"/>
<rect x="8" y="18" width="16" height="1" fill="#2d69d2"/>
<rect x="24" y="18" width="3" height="1" fill="#dce6eb"/>
<rect x="40" y="18" width="16" height="1" fill="#2d69d2"/>
<rect x="56" y="18" width="3" height="1" fill="#dce6eb"/>
<rect x="72" y="18" width="16" height="1" fill="#2d69d2"/>
<rect x="88" y="18" width="3" height="1" fill="#dce6eb"/>
<rect x="104" y="18" width="16" height="1" fill="#2d69d2"/>
<rect x="120" y="18" width="3" height="1" fill="#dce6eb"/>
<rect x="8" y="19" width="16" height="1" fill="#2d69d2"/>
<rect x="24" y="19" width="3" height="1" fill="#dce6eb"/>
<rect x="40" y="19" width="13" height="1" fill="#2d69d2"/>
<rect x="56" y="19" width="3" height="1" fill="#dce6eb"/>
<rect x="72" y="19" width="16" height="1" fill="#2d69d2"/>
<rect x="88" y="19" width="3" height="1" fill="#dce6eb"/>
<rect x="107" y="19" width="13" height="1" fill="#2d69d2"/>
<rect x="120" y="19" width="3" height="1" fill="#dce6eb"/>
<rect x="11" y="20" width="10" height="1" fill="#2d69d2"/>
<rect x="24" y="20" width="3" height="1" fill="#dce6eb"/>
<rect x="40" y="20" width="13" height="1" fill="#2d69d2"/>
<rect x="56" y="20" width="3" height="1" fill="#dce6eb"/>
<rect x="75" y="20" width="10" height="1" fill="#2d69d2"/>
<rect x="88" y="20" width="3" height="1" fill="#dce6eb"/>
<rect x="107" y="20" width="13" height="1" fill="#2d69d2"/>
<rect x="120" y="20" width="3" height="1" fill="#dce6eb"/>
<rect x="11" y="21" width="10" height="1" fill="#2d69d2"/>
<rect x="24" y="21" width="3" height="1" fill="#dce6eb"/>
<rect x="43" y="21" width="10" height="1" fill="#2d69d2"/>
<rect x="75" y="21" width="10" height="1" fill="#2d69d2"/>
<rect x="88" y="21" width="3" height="1" fill="#dce6eb"/>
<rect x="107" y="21" width="10" height="1" fill="#2d69d2"/>
<rect x="120" y="21" width="3" height="1" fill="#dce6eb"/>
<rect x="11" y="22" width="4" height="1" fill="#23191e"/>
<rect x="17" y="22" width="4" height="1" fill="#23191e"/>
<rect x="43" y="22" width="4" height="1" fill="#23191e"/>
<rect x="49" y="22" width="4" height="1" fill="#23191e"/>
<rect x="75" y="22" width="4" height="1" fill="#23191e"/>
<rect x="81" y="22" width="4" height="1" fill="#23191e"/>
<rect x="107" y="22" width="4" height="1" fill="#23191e"/>
<rect x="113" y="22" width="4" height="1" fill="#23191e"/>
<rect x="120" y="22" width="3" height="1" fill="#dce6eb"/>
<rect x="11" y="23" width="4" height="1" fill="#23191e"/>
<rect x="17" y="23" width="4" height="1" fill="#23191e"/>
<rect x="43" y="23" width="4" height="1" fill="#23191e"/>
<rect x="49" y="23" width="4" height="1" fill="#23191e"/>
<rect x="75" y="23" width="4" height="1" fill="#23191e"/>
<rect x="81" y="23" width="4" height="1" fill="#23191e"/>
<rect x="107" y="23" width="4" height="1" fill="#23191e"/>
<rect x="113" y="23" width="4" height="1" fill="#23191e"/>
<rect x="11" y="24" width="4" height="1" fill="#23191e"/>
<rect x="17" y="24" width="4" height="1" fill="#23191e"/>
<rect x="43" y="24" width="4" height="1" fill="#23191e"/>
<rect x="49" y="24" width="4" height="1" fill="#23191e"/>
<rect x="75" y="24" width="4" height="1" fill="#23191e"/>
<rect x="81" y="24" width="4" height="1" fill="#23191e"/>
<rect x="107" y="24" width="4" height="1" fill="#23191e"/>
<rect x="113" y="24" width="4" height="1" fill="#23191e"/>
<rect x="11" y="25" width="4" height="1" fill="#23191e"/>
<rect x="17" y="25" width="4" height="1" fill="#23191e"/>
<rect x="43" y="25" width="4" height="1" fill="#23191e"/>
<rect x="49" y="25" width="4" height="1" fill="#23191e"/>
<rect x="75" y="25" width="4" height="1" fill="#23191e"/>
<rect x="81" y="25" width="4" height="1" fill="#23191e"/>
<rect x="107" y="25" width="4" height="1" fill="#23191e"/>
<rect x="113" y="25" width="4" height="1" fill="#23191e"/>
<rect x="11" y="26" width="4" height="1" fill="#23191e"/>
<rect x="17" y="26" width="4" height="1" fill="#23191e"/>
<rect x="43" y="26" width="4" height="1" fill="#23191e"/>
<rect x="49" y="26" width="4" height="1" fill="#23191e"/>
<rect x="75" y="26" width="4" height="1" fill="#23191e"/>
<rect x="81" y="26" width="4" height="1" fill="#23191e"/>
<rect x="107" y="26" width="4" height="1" fill="#23191e"/>
<rect x="113" y="26" width="4" height="1" fill="#23191e"/>
<rect x="11" y="27" width="4" height="1" fill="#23191e"/>
<rect x="17" y="27" width="4" height="1" fill="#23191e"/>
<rect x="43" y="27" width="4" height="1" fill="#23191e"/>
<rect x="49" y="27" width="4" height="1" fill="#23191e"/>
<rect x="75" y="27" width="4" height="1" fill="#23191e"/>
<rect x="81" y="27" width="4" height="1" fill="#23191e"/>
<rect x="107" y="27" width="4" height="1" fill="#23191e"/>
<rect x="113" y="27" width="4" height="1" fill="#23191e"/>
<rect x="11" y="28" width="4" height="1" fill="#23191e"/>
<rect x="17" y="28" width="4" height="1" fill="#23191e"/>
<rect x="49" y="28" width="4" height="1" fill="#23191e"/>
<rect x="75" y="28" width="4" height="1" fill="#23191e"/>
<rect x="81" y="28" width="4" height="1" fill="#23191e"/>
<rect x="107" y="28" width="4" height="1" fill="#23191e"/>
<rect x="49" y="29" width="4" height="1" fill="#23191e"/>
<rect x="107" y="29" width="4" height="1" fill="#23191e"/>
</svg>
