<svg xmlns="http://www.w3.org/2000/svg" width="128" height="32" viewBox="0 0 128 32" shape-rendering="crispEdges">
<rect width="100%" height="100%" fill="none"/>
<rect x="16" y="0" width="1" height="1" fill="#2b763e"/>
<rect x="12" y="1" width="9" height="1" fill="#2b763e"/>
<rect x="11" y="2" width="11" height="1" fill="#2b763e"/>
<rect x="10" y="3" width="13" height="1" fill="#2b763e"/>
<rect x="9" y="4" width="15" height="1" fill="#2b763e"/>
<rect x="8" y="5" width="17" height="1" fill="#2b763e"/>
<rect x="8" y="6" width="17" height="1" fill="#2b763e"/>
<rect x="107" y="6" width="10" height="1" fill="#707280"/>
<rect x="8" y="7" width="17" height="1" fill="#2b763e"/>
<rect x="76" y="7" width="1" height="1" fill="#dc5384"/>
<rect x="107" y="7" width="10" height="1" fill="#707280"/>
<rect x="8" y="8" width="2" height="1" fill="#2b763e"/>
<rect x="10" y="8" width="1" height="1" fill="#246336"/>
<rect x="11" y="8" width="11" height="1" fill="#2b763e"/>
<rect x="22" y="8" width="1" height="1" fill="#329148"/>
<rect x="23" y="8" width="2" height="1" fill="#2b763e"/>
<rect x="74" y="8" width="5" height="1" fill="#dc5384"/>
<rect x="84" y="8" width="1" height="1" fill="#ffd858"/>
<rect x="107" y="8" width="10" height="1" fill="#707280"/>
<rect x="7" y="9" width="7" height="1" fill="#246336"/>
<rect x="14" y="9" width="5" height="1" fill="#2b763e"/>
<rect x="19" y="9" width="7" height="1" fill="#329148"/>
<rect x="73" y="9" width="7" height="1" fill="#dc5384"/>
<rect x="82" y="9" width="5" height="1" fill="#ffd858"/>
<rect x="107" y="9" width="10" height="1" fill="#707280"/>
<rect x="6" y="10" width="9" height="1" fill="#246336"/>
<rect x="15" y="10" width="3" height="1" fill="#2b763e"/>
<rect x="18" y="10" width="9" height="1" fill="#329148"/>
<rect x="73" y="10" width="7" height="1" fill="#dc5384"/>
<rect x="81" y="10" width="7" height="1" fill="#ffd858"/>
<rect x="104" y="10" width="16" height="1" fill="#4e505c"/>
<rect x="5" y="11" width="11" height="1" fill="#246336"/>
<rect x="16" y="11" width="1" height="1" fill="#2b763e"/>
<rect x="17" y="11" width="11" height="1" fill="#329148"/>
<rect x="48" y="11" width="1" height="1" fill="#5c6369"/>
<rect x="72" y="11" width="9" height="1" fill="#dc5384"/>
<rect x="81" y="11" width="7" height="1" fill="#ffd858"/>
<rect x="104" y="11" width="16" height="1" fill="#4e505c"/>
<rect x="5" y="12" width="11" height="1" fill="#246336"/>
<rect x="16" y="12" width="1" height="1" fill="#2b763e"/>
<rect x="17" y="12" width="11" height="1" fill="#329148"/>
<rect x="44" y="12" width="9" height="1" fill="#5c6369"/>
<rect x="73" y="12" width="7" height="1" fill="#dc5384"/>
<rect x="80" y="12" width="9" height="1" fill="#ffd858"/>
<rect x="104" y="12" width="16" height="1" fill="#4e505c"/>
<rect x="5" y="13" width="11" height="1" fill="#246336"/>
<rect x="16" y="13" width="1" height="1" fill="#2b763e"/>
<rect x="17" y="13" width="11" height="1" fill="#329148"/>
<rect x="43" y="13" width="11" height="1" fill="#5c6369"/>
<rect x="73" y="13" width="7" height="1" fill="#dc5384"/>
<rect x="80" y="13" width="1" height="1" fill="#1e6e2e"/>
<rect x="81" y="13" width="7" height="1" fill="#ffd858"/>
<rect x="104" y="13" width="16" height="1" fill="#4e505c"/>
<rect x="4" y="14" width="12" height="1" fill="#246336"/>
<rect x="16" y="14" width="13" height="1" fill="#329148"/>
<rect x="42" y="14" width="13" height="1" fill="#5c6369"/>
<rect x="74" y="14" width="5" height="1" fill="#dc5384"/>
<rect x="79" y="14" width="2" height="1" fill="#1e6e2e"/>
<rect x="81" y="14" width="7" height="1" fill="#ffd858"/>
<rect x="104" y="14" width="5" height="1" fill="#4e505c"/>
<rect x="109" y="14" width="6" height="1" fill="#232630"/>
<rect x="115" y="14" width="5" height="1" fill="#4e505c"/>
<rect x="5" y="15" width="11" height="1" fill="#246336"/>
<rect x="16" y="15" width="1" height="1" fill="#2b763e"/>
<rect x="17" y="15" width="11" height="1" fill="#329148"/>
<rect x="41" y="15" width="3" height="1" fill="#5c6369"/>
<rect x="44" y="15" width="1" height="1" fill="#8c9496"/>
<rect x="45" y="15" width="11" height="1" fill="#5c6369"/>
<rect x="76" y="15" width="1" height="1" fill="#dc5384"/>
<rect x="78" y="15" width="3" height="1" fill="#1e6e2e"/>
<rect x="82" y="15" width="5" height="1" fill="#ffd858"/>
<rect x="104" y="15" width="5" height="1" fill="#4e505c"/>
<rect x="109" y="15" width="6" height="1" fill="#232630"/>
<rect x="115" y="15" width="5" height="1" fill="#4e505c"/>
<rect x="5" y="16" width="11" height="1" fill="#246336"/>
<rect x="16" y="16" width="1" height="1" fill="#2b763e"/>
<rect x="17" y="16" width="11" height="1" fill="#329148"/>
<rect x="40" y="16" width="17" height="1" fill="#5c6369"/>
<rect x="78" y="16" width="3" height="1" fill="#1e6e2e"/>
<rect x="84" y="16" width="1" height="1" fill="#ffd858"/>
<rect x="104" y="16" width="5" height="1" fill="#4e505c"/>
<rect x="109" y="16" width="6" height="1" fill="#232630"/>
<rect x="115" y="16" width="5" height="1" fill="#4e505c"/>
<rect x="5" y="17" width="11" height="1" fill="#246336"/>
<rect x="16" y="17" width="1" height="1" fill="#2b763e"/>
<rect x="17" y="17" width="11" height="1" fill="#329148"/>
<rect x="40" y="17" width="17" height="1" fill="#5c6369"/>
<rect x="78" y="17" width="3" height="1" fill="#1e6e2e"/>
<rect x="104" y="17" width="5" height="1" fill="#4e505c"/>
<rect x="109" y="17" width="6" height="1" fill="#232630"/>
<rect x="115" y="17" width="5" height="1" fill="#4e505c"/>
<rect x="6" y="18" width="9" height="1" fill="#246336"/>
<rect x="15" y="18" width="1" height="1" fill="#553722"/>
<rect x="16" y="18" width="1" height="1" fill="#2b763e"/>
<rect x="17" y="18" width="1" height="1" fill="#553722"/>
<rect x="18" y="18" width="9" height="1" fill="#329148"/>
<rect x="40" y="18" width="17" height="1" fill="#5c6369"/>
<rect x="78" y="18" width="3" height="1" fill="#1e6e2e"/>
<rect x="104" y="18" width="5" height="1" fill="#4e505c"/>
<rect x="109" y="18" width="6" height="1" fill="#232630"/>
<rect x="115" y="18" width="5" height="1" fill="#4e505c"/>
<rect x="7" y="19" width="7" height="1" fill="#246336"/>
<rect x="14" y="19" width="5" height="1" fill="#553722"/>
<rect x="19" y="19" width="7" height="1" fill="#329148"/>
<rect x="40" y="19" width="17" height="1" fill="#5c6369"/>
<rect x="78" y="19" width="3" height="1" fill="#1e6e2e"/>
<rect x="104" y="19" width="5" height="1" fill="#4e505c"/>
<rect x="109" y="19" width="6" height="1" fill="#232630"/>
<rect x="115" y="19" width="5" height="1" fill="#4e505c"/>
<rect x="10" y="20" width="1" height="1" fill="#246336"/>
<rect x="13" y="20" width="6" height="1" fill="#553722"/>
<rect x="22" y="20" width="1" height="1" fill="#329148"/>
<rect x="39" y="20" width="19" height="1" fill="#5c6369"/>
<rect x="78" y="20" width="3" height="1" fill="#1e6e2e"/>
<rect x="104" y="20" width="5" height="1" fill="#4e505c"/>
<rect x="109" y="20" width="6" height="1" fill="#232630"/>
<rect x="115" y="20" width="5" height="1" fill="#4e505c"/>
<rect x="13" y="21" width="6" height="1" fill="#553722"/>
<rect x="40" y="21" width="17" height="1" fill="#3c4148"/>
<rect x="78" y="21" width="3" height="1" fill="#1e6e2e"/>
<rect x="104" y="21" width="5" height="1" fill="#4e505c"/>
<rect x="109" y="21" width="6" height="1" fill="#232630"/>
<rect x="115" y="21" width="5" height="1" fill="#4e505c"/>
<rect x="13" y="22" width="6" height="1" fill="#553722"/>
<rect x="40" y="22" width="17" height="1" fill="#3c4148"/>
<rect x="78" y="22" width="3" height="1" fill="#1e6e2e"/>
<rect x="104" y="22" width="5" height="1" fill="#4e505c"/>
<rect x="109" y="22" width="6" height="1" fill="#232630"/>
<rect x="115" y="22" width="5" height="1" fill="#4e505c"/>
<rect x="13" y="23" width="6" height="1" fill="#553722"/>
<rect x="40" y="23" width="17" height="1" fill="#3c4148"/>
<rect x="78" y="23" width="3" height="1" fill="#1e6e2e"/>
<rect x="104" y="23" width="5" height="1" fill="#4e505c"/>
<rect x="109" y="23" width="6" height="1" fill="#232630"/>
<rect x="115" y="23" width="5" height="1" fill="#4e505c"/>
<rect x="13" y="24" width="6" height="1" fill="#553722"/>
<rect x="40" y="24" width="17" height="1" fill="#3c4148"/>
<rect x="78" y="24" width="3" height="1" fill="#1e6e2e"/>
<rect x="104" y="24" width="5" height="1" fill="#4e505c"/>
<rect x="109" y="24" width="6" height="1" fill="#232630"/>
<rect x="115" y="24" width="5" height="1" fill="#4e505c"/>
<rect x="40" y="25" width="17" height="1" fill="#3c4148"/>
<rect x="78" y="25" width="3" height="1" fill="#1e6e2e"/>
<rect x="40" y="26" width="17" height="1" fill="#3c4148"/>
<rect x="43" y="27" width="11" height="1" fill="#5c6369"/>
<rect x="44" y="28" width="9" height="1" fill="#5c6369"/>
<rect x="48" y="29" width="1" height="1" fill="#5c6369"/>
</svg>
