<svg xmlns="http://www.w3.org/2000/svg" width="16" height="16" viewBox="0 0 16 16" shape-rendering="crispEdges">
<rect width="100%" height="100%" fill="none"/>
<rect x="6" y="2" width="4" height="1" fill="#40e6ff"/>
<rect x="6" y="3" width="4" height="1" fill="#40e6ff"/>
<rect x="6" y="4" width="1" height="1" fill="#40e6ff"/>
<rect x="7" y="4" width="1" height="1" fill="#d2ffff"/>
<rect x="8" y="4" width="2" height="1" fill="#40e6ff"/>
<rect x="6" y="5" width="4" height="1" fill="#40e6ff"/>
<rect x="4" y="6" width="8" height="1" fill="#2096dc"/>
<rect x="4" y="7" width="8" height="1" fill="#2096dc"/>
<rect x="4" y="8" width="8" height="1" fill="#2096dc"/>
<rect x="4" y="9" width="8" height="1" fill="#2096dc"/>
<rect x="6" y="10" width="4" height="1" fill="#40e6ff"/>
<rect x="6" y="11" width="4" height="1" fill="#40e6ff"/>
<rect x="6" y="12" width="4" height="1" fill="#40e6ff"/>
<rect x="6" y="13" width="4" height="1" fill="#40e6ff"/>
</svg>
